<svg width="160" height="35" viewBox="0 0 160 35" fill="none" xmlns="http://www.w3.org/2000/svg">
<path fill-rule="evenodd" clip-rule="evenodd" d="M35.781 0.708842C37.5677 0.929315 39.3007 1.61829 40.765 2.70687C41.1412 2.99624 41.5039 3.31317 41.8397 3.61632L37.3125 8.26003C36.3049 7.39192 35.0018 7.00609 33.6584 7.21278C32.6508 7.36436 31.7373 7.90176 30.9178 8.83876L19.3511 20.7856C17.2957 22.9077 14.4611 24.0789 11.5459 23.9962H11.4921C5.55427 23.8447 2.63908 18.8014 2.63908 18.8014C-1.32398 14.0061 -0.759749 6.81318 3.90188 2.73443C8.57694 -1.35809 15.603 -0.793121 19.5929 4.00215L19.8347 4.29152L15.0925 9.12813L14.676 8.63207C13.1042 6.74428 10.3368 6.52381 8.49634 8.13601C8.49634 8.13601 8.25453 8.28759 7.93211 8.61829C6.46779 10.134 6.44093 12.5868 7.79777 14.2128L8.91279 15.5494C10.1353 17.01 11.7071 17.2581 13.3998 16.5829C14.2193 16.2659 14.9447 15.7423 15.5627 15.1084C18.0748 12.5868 26.6055 3.93326 26.6055 3.93326C29.0102 1.46672 32.3284 0.281676 35.781 0.708842ZM64.9733 5.09075C66.1286 6.63406 66.8675 8.46674 67.1093 10.3959C67.566 13.9648 66.4107 17.4097 63.9791 19.9037L52.5333 31.6439C50.1286 34.1104 46.8104 35.2955 43.3578 34.8683C41.5711 34.6478 39.8381 33.9589 38.3738 32.8703C37.7961 32.4431 37.2722 31.9746 36.802 31.4648L41.4367 26.9589L41.4905 27.014C42.3637 27.9097 43.519 28.4057 44.755 28.4057C45.9909 28.4057 47.1462 27.9097 48.0194 27.014L59.4653 15.2738C60.3385 14.3782 60.8221 13.1931 60.8221 11.9254C60.8221 10.6577 60.3385 9.47264 59.4653 8.57697C58.5921 7.6813 57.4367 7.18524 56.2008 7.18524C54.9649 7.18524 53.8095 7.6813 52.9363 8.57697L30.7163 31.6439C28.634 33.7797 25.8801 34.951 22.938 34.951H22.8708H22.8037C19.8616 34.951 17.1076 33.7797 15.0253 31.6439L12.0698 28.6124C16.4493 28.4746 18.357 27.1104 19.1093 26.2974C19.2705 26.5455 19.4586 26.7797 19.6735 27.0002C20.5333 27.8683 21.6618 28.3644 22.8708 28.3781C24.0799 28.3644 25.2084 27.8821 26.0681 27.0002L48.2478 4.1124C50.3838 1.92146 53.2856 0.598628 56.3083 0.626185C59.6937 0.653746 62.8507 2.25217 64.9733 5.09075Z" fill="#E41623"/>
<path d="M76.5266 13.634C76.5266 10.7817 79.1597 8.16357 83.3108 8.16357C86.2932 8.16357 88.671 9.41751 90.1756 11.4707L87.5694 14.0474C86.5618 12.9175 85.111 11.884 83.163 11.884C81.3629 11.884 80.5299 12.5455 80.5299 13.5789C80.5299 16.3211 90.2965 14.764 90.2965 21.2541C90.2965 24.5199 87.4351 26.9588 83.6601 26.9588C79.4284 26.9588 76.7415 24.9057 75.5459 22.5632L78.3805 20.1518C79.5358 22.0533 81.4166 23.2384 83.566 23.2384C85.514 23.2384 86.2932 22.4667 86.2932 21.5711C86.2932 18.4431 76.5266 20.1655 76.5266 13.634Z" fill="black"/>
<path d="M96.2881 31.699H92.3519L95.0253 25.4294L88.7919 13.2069H93.0236L96.7986 20.9648L99.7272 13.2069H103.61L96.2881 31.699Z" fill="black"/>
<path d="M102.629 13.1931H106.256V14.1439C106.834 13.4273 108.056 12.9313 109.816 12.9313C113.148 12.9313 114.948 14.7502 114.948 19.0494V26.5454H111.321V19.2699C111.321 17.1065 110.488 16.3899 108.768 16.3899C107.586 16.3899 106.713 17.0376 106.27 18.1675V26.5454H102.642V13.1931H102.629Z" fill="black"/>
<path d="M127.348 24.0927C125.951 25.884 123.922 26.7659 121.732 26.7659C117.527 26.7659 114.693 24.0651 114.693 19.8624C114.693 15.9628 117.044 12.9313 121.45 12.9313C125.01 12.9313 127.657 15.3427 127.657 19.0769C127.657 19.4903 127.603 20.2344 127.455 21.2403H118.495C118.844 22.701 120.174 23.321 121.773 23.321C122.995 23.321 124.379 22.8388 125.158 21.8604L127.348 24.0927ZM118.575 18.0021H123.909C123.586 16.7482 122.659 16.2521 121.329 16.2521C119.959 16.2521 119.032 16.8171 118.575 18.0021Z" fill="black"/>
<path d="M127.549 13.1931H131.176V13.7305C131.459 13.3447 132.332 12.9313 133.178 12.9313C134.562 12.9313 135.153 13.3447 135.731 14.0888L133.877 17.0651C133.702 16.7344 133.178 16.5277 132.694 16.5277C132.117 16.5277 131.472 16.7895 131.163 17.9195V26.5454H127.536V13.1931H127.549Z" fill="black"/>
<path d="M146.303 25.4017C146.303 29.8525 143.979 31.9194 140.124 31.9194C137.074 31.9194 134.911 30.5553 134.065 28.2403L137.249 26.8761C137.679 27.7029 138.525 28.447 139.774 28.447C141.883 28.447 142.676 27.5513 142.676 26.132V25.5395C142.246 26.1871 141.346 26.7521 139.747 26.7521C136.093 26.7521 133.433 24.382 133.433 19.8486C133.433 15.508 136.51 13.0139 139.747 13.0139C141.346 13.0139 142.071 13.3033 142.676 13.7304V13.193H146.303V25.4017ZM142.676 21.8053V17.3545C142.246 16.8171 141.548 16.4864 140.352 16.4864C138.619 16.4864 137.195 17.6163 137.195 19.9037C137.195 22.1084 138.391 23.2934 140.379 23.2934C141.521 23.2934 142.367 22.6045 142.676 21.8053Z" fill="black"/>
<path d="M152.658 31.699H148.721L151.395 25.4294L145.161 13.2069H149.393L153.168 20.9648L156.097 13.2069H159.979L152.658 31.699Z" fill="black"/>
</svg>
